<svg width="77" height="32" viewBox="0 0 77 32" fill="none" xmlns="http://www.w3.org/2000/svg">
<path d="M37.8104 21.8756L37.4564 22.2289L37.4658 22.2379L37.8104 21.8756ZM37.7298 21.7949L37.3759 22.1481L37.3759 22.1481L37.7298 21.7949ZM34.8689 21.7949L35.2228 22.1481L35.2228 22.1481L34.8689 21.7949ZM31.8065 24.8634L31.4526 24.5102L31.4526 24.5102L31.8065 24.8634ZM31.8065 27.73L31.4526 28.0832L31.4526 28.0832L31.8065 27.73ZM31.8871 27.8107L32.241 27.4575L32.241 27.4575L31.8871 27.8107ZM34.6473 27.73L34.3076 27.363L34.3004 27.3698L34.2934 27.3768L34.6473 27.73ZM40.1878 26.3774L39.7848 26.6734L39.7884 26.6782L40.1878 26.3774ZM39.946 28.4769L39.5956 28.1203L39.5905 28.1253L39.946 28.4769ZM37.7298 30.7177L38.0837 31.0709L38.0853 31.0693L37.7298 30.7177ZM39.1804 25.322L39.5446 24.9794L39.516 24.9489L39.4827 24.9236L39.1804 25.322ZM41.9205 28.2347L41.5563 28.5773L41.5676 28.5892L41.5796 28.6004L41.9205 28.2347ZM45.0232 28.2347L45.3599 28.6043L45.3653 28.5993L45.0232 28.2347ZM45.4375 24.6111C45.2425 24.4156 44.9259 24.4153 44.7304 24.6104C44.535 24.8055 44.5347 25.122 44.7297 25.3175L45.4375 24.6111ZM28.18 24.8431L28.5374 24.4934L28.5339 24.49L28.18 24.8431ZM28.1397 24.8028L28.4936 24.4496L28.4936 24.4496L28.1397 24.8028ZM28.1397 21.1286L28.4936 21.4818L28.4936 21.4818L28.1397 21.1286ZM32.2699 16.9902L31.916 16.637L31.916 16.637L32.2699 16.9902ZM35.9368 16.9902L35.5829 17.3434L35.5829 17.3434L35.9368 16.9902ZM35.9771 17.0306L36.331 16.6774L36.3309 16.6774L35.9771 17.0306ZM35.9771 20.7047L35.6231 20.3515L35.6231 20.3515L35.9771 20.7047ZM31.8468 24.8431L31.4929 24.4899L31.4894 24.4935L31.8468 24.8431ZM44.3764 17.4115C44.1741 17.2235 43.8577 17.2351 43.6698 17.4374C43.4818 17.6396 43.4933 17.956 43.6956 18.144L44.3764 17.4115ZM48.2065 21.6537L48.5474 21.288L48.5469 21.2875L48.2065 21.6537ZM51.3092 21.6537L51.646 22.0234L51.6513 22.0184L51.3092 21.6537ZM51.3697 18.3834L51.7236 18.0302L51.7236 18.0302L51.3697 18.3834ZM43.2905 10.2882L42.9366 10.6414L42.9366 10.6414L43.2905 10.2882ZM43.7942 8.6328L43.7046 8.14071L43.691 8.14357L43.7942 8.6328ZM48.408 7.0178L48.7285 7.40161L48.7318 7.39874L48.408 7.0178ZM49.2945 7.0178L48.7953 7.04711L48.7959 7.05607L49.2945 7.0178ZM48.5692 8.3098L48.3227 7.87467L48.3158 7.87873L48.5692 8.3098ZM40.5505 8.65299L40.4549 9.14378L40.4591 9.14456L40.5505 8.65299ZM38.5358 9.2788L38.8897 9.63201L38.8897 9.632L38.5358 9.2788ZM38.4552 9.35955L38.1013 9.00634L38.1013 9.00635L38.4552 9.35955ZM34.6272 11.237L34.6837 11.7338L34.6893 11.7331L34.6272 11.237ZM32.149 10.5304L31.834 10.9187L31.8363 10.9206L32.149 10.5304ZM32.1087 9.19805L31.7783 8.82277L31.7739 8.82673L32.1087 9.19805ZM36.7628 5.09999L36.4327 4.72438L36.4324 4.72473L36.7628 5.09999ZM38.0724 3.9493L38.4024 4.3249L38.4025 4.32485L38.0724 3.9493ZM51.41 2.85917L51.0588 3.21507L51.0588 3.21515L51.41 2.85917ZM52.6994 4.13099L53.0507 3.77525L53.0505 3.77501L52.6994 4.13099ZM54.3716 14.4872L54.8168 14.7148L54.8169 14.7147L54.3716 14.4872ZM55.5805 16.1224L55.6558 16.6167L55.6608 16.6159L55.5805 16.1224ZM67.6085 14.1642L67.5376 13.6691L67.5281 13.6707L67.6085 14.1642ZM68.6159 15.6782L69.0414 15.9407L69.0427 15.9386L68.6159 15.6782ZM67.5077 17.4749L67.9331 17.7377L67.9333 17.7374L67.5077 17.4749ZM68.7569 18.9082L68.5531 18.4516L68.5496 18.4532L68.7569 18.9082ZM71.3358 17.7576L71.5395 18.2142L71.5404 18.2137L71.3358 17.7576ZM75.6473 17.3289C75.9234 17.3289 76.1473 17.1051 76.1473 16.8289C76.1473 16.5528 75.9234 16.3289 75.6473 16.3289V17.3289ZM48.1461 24.9239L47.8082 24.5553L47.8052 24.5581L48.1461 24.9239ZM45.0434 24.9239L44.703 25.2901L44.7067 25.2935L45.0434 24.9239ZM41.2133 20.6816C41.011 20.4936 40.6946 20.5052 40.5066 20.7075C40.3186 20.9097 40.3302 21.2261 40.5325 21.4141L41.2133 20.6816ZM0.550558 16.4503C0.274576 16.4598 0.0584912 16.6911 0.0679184 16.9671C0.0773456 17.2431 0.308715 17.4592 0.584696 17.4498L0.550558 16.4503ZM4.74847 18.1411L4.9866 17.7014L4.98525 17.7007L4.74847 18.1411ZM6.98484 19.3523L6.74671 19.792L6.74742 19.7923L6.98484 19.3523ZM17.3809 14.8909L17.1588 15.3389L17.1591 15.339L17.3809 14.8909ZM20.6851 16.5261L20.4633 16.9742L20.4639 16.9745L20.6851 16.5261ZM24.8355 17.6162L24.8073 18.1155L24.8169 18.1158L24.8355 17.6162ZM26.3264 17.0509L26.6712 17.4132L26.6803 17.4041L26.3264 17.0509ZM27.8374 15.5369L28.1913 15.8901L28.1913 15.8901L27.8374 15.5369ZM30.6983 15.5369L30.3444 15.8901L30.3445 15.8901L30.6983 15.5369ZM30.7789 15.6176L31.1328 15.2644L31.1328 15.2644L30.7789 15.6176ZM30.7789 18.4842L30.425 18.131L30.425 18.131L30.7789 18.4842ZM27.7165 21.5527L28.0704 21.906L28.0704 21.906L27.7165 21.5527ZM24.8556 21.5527L24.5017 21.9059L24.5017 21.906L24.8556 21.5527ZM24.775 21.472L25.1289 21.1188L25.1289 21.1188L24.775 21.472ZM24.775 18.6054L24.4508 18.2247L24.4354 18.2378L24.4211 18.2522L24.775 18.6054ZM24.775 17.1721L25.1149 16.8053L25.1099 16.8007L24.775 17.1721ZM23.3445 15.7186L23.7237 15.3927L23.7116 15.3785L23.6984 15.3654L23.3445 15.7186ZM35.6546 3.384L36.0085 3.03079L36.0085 3.03079L35.6546 3.384ZM37.3786 25.8827C37.7358 25.5249 38.4166 24.9142 38.7607 24.1896C38.9412 23.8096 39.047 23.3675 38.962 22.8874C38.8768 22.4065 38.6108 21.9469 38.155 21.5133L37.4658 22.2379C37.8059 22.5614 37.9378 22.8386 37.9773 23.0617C38.0169 23.2856 37.9742 23.5148 37.8574 23.7606C37.6072 24.2876 37.0993 24.7469 36.6708 25.1763L37.3786 25.8827ZM38.1643 21.5224L38.0837 21.4416L37.3759 22.1481L37.4565 22.2288L38.1643 21.5224ZM38.0837 21.4417C37.1026 20.4586 35.4961 20.4586 34.515 21.4417L35.2228 22.1481C35.8132 21.5565 36.7855 21.5565 37.3759 22.1481L38.0837 21.4417ZM34.515 21.4417L31.4526 24.5102L32.1604 25.2166L35.2228 22.1481L34.515 21.4417ZM31.4526 24.5102C30.472 25.4926 30.472 27.1007 31.4526 28.0832L32.1604 27.3768C31.5694 26.7846 31.5694 25.8087 32.1604 25.2166L31.4526 24.5102ZM31.4526 28.0832L31.5332 28.1639L32.241 27.4575L32.1604 27.3768L31.4526 28.0832ZM31.5332 28.1639C32.541 29.1737 34.0479 29.0384 35.0012 28.0832L34.2934 27.3768C33.6752 27.9962 32.8047 28.0224 32.241 27.4575L31.5332 28.1639ZM34.9869 28.0969L37.3643 25.8965L36.685 25.1626L34.3076 27.363L34.9869 28.0969ZM37.28 25.9595C38.019 25.5206 38.4437 25.5331 38.7347 25.6518C39.0768 25.7914 39.386 26.1303 39.7848 26.6734L40.5908 26.0815C40.2039 25.5546 39.7475 24.985 39.1125 24.7259C38.4262 24.4459 37.6623 24.5695 36.7694 25.0996L37.28 25.9595ZM39.7884 26.6782C40.0563 27.0338 40.0212 27.3605 39.9068 27.6379C39.847 27.783 39.7663 27.9078 39.6983 27.9978C39.6649 28.042 39.6361 28.0757 39.617 28.0971C39.6074 28.1077 39.6004 28.1152 39.5966 28.1192C39.5947 28.1211 39.5936 28.1222 39.5934 28.1225C39.5933 28.1226 39.5934 28.1224 39.5938 28.1221C39.594 28.1219 39.5942 28.1217 39.5945 28.1214C39.5947 28.1212 39.5948 28.1211 39.595 28.1209C39.5951 28.1208 39.5952 28.1206 39.5953 28.1206C39.5954 28.1205 39.5956 28.1203 39.946 28.4769C40.2965 28.8335 40.2967 28.8334 40.2968 28.8332C40.2969 28.8332 40.2971 28.833 40.2972 28.8329C40.2974 28.8326 40.2977 28.8324 40.298 28.8321C40.2985 28.8316 40.2991 28.8309 40.2998 28.8303C40.3012 28.8289 40.3028 28.8273 40.3046 28.8254C40.3084 28.8217 40.313 28.8169 40.3186 28.811C40.3298 28.7994 40.3445 28.7837 40.362 28.7641C40.397 28.725 40.4438 28.6699 40.496 28.6009C40.5992 28.4643 40.73 28.2649 40.8314 28.0189C41.0394 27.5141 41.1252 26.7909 40.5872 26.0766L39.7884 26.6782ZM39.5905 28.1253L37.3743 30.3661L38.0853 31.0693L40.3015 28.8285L39.5905 28.1253ZM37.3759 30.3645C36.7654 30.9763 35.7729 30.9763 35.1624 30.3645L34.4546 31.0709C35.4558 32.0742 37.0825 32.0742 38.0837 31.0709L37.3759 30.3645ZM35.1624 30.3645C34.5004 29.7012 34.4373 28.6482 35.0012 28.0832L34.2934 27.3768C33.2454 28.4268 33.5047 30.1192 34.4546 31.0709L35.1624 30.3645ZM37.3281 25.927C37.4615 25.8251 37.7685 25.6842 38.1173 25.6258C38.4753 25.5657 38.7386 25.6144 38.8782 25.7203L39.4827 24.9236C39.0178 24.5709 38.4148 24.5619 37.9519 24.6395C37.4796 24.7187 37.0109 24.911 36.7213 25.1321L37.3281 25.927ZM38.8162 25.6646L41.5563 28.5773L42.2847 27.8921L39.5446 24.9794L38.8162 25.6646ZM41.5796 28.6004C42.6401 29.5889 44.2848 29.5836 45.3599 28.6043L44.6865 27.865C43.9886 28.5007 42.9335 28.4954 42.2614 27.8689L41.5796 28.6004ZM45.3653 28.5993C46.5177 27.5184 46.5439 25.7196 45.4375 24.6111L44.7297 25.3175C45.4367 26.0258 45.4226 27.1745 44.6811 27.87L45.3653 28.5993ZM28.5339 24.49L28.4936 24.4496L27.7858 25.156L27.8261 25.1963L28.5339 24.49ZM28.4936 24.4496C27.681 23.6354 27.681 22.296 28.4936 21.4818L27.7858 20.7754C26.5836 21.98 26.5836 23.9514 27.7858 25.156L28.4936 24.4496ZM28.4936 21.4818L32.6238 17.3434L31.916 16.637L27.7858 20.7754L28.4936 21.4818ZM32.6238 17.3434C33.4359 16.5298 34.7708 16.5298 35.5829 17.3434L36.2907 16.637C35.0879 15.4319 33.1187 15.4319 31.916 16.637L32.6238 17.3434ZM35.5829 17.3434L35.6232 17.3838L36.3309 16.6774L36.2907 16.637L35.5829 17.3434ZM35.6231 17.3838C36.4357 18.198 36.4357 19.5373 35.6231 20.3515L36.331 21.0579C37.5331 19.8534 37.5331 17.8819 36.331 16.6774L35.6231 17.3838ZM35.6231 20.3515L31.4929 24.4899L32.2007 25.1963L36.331 21.0579L35.6231 20.3515ZM31.4894 24.4935C30.6782 25.3226 29.3486 25.3226 28.5374 24.4935L27.8226 25.1928C29.0261 26.4228 31.0007 26.4228 32.2042 25.1928L31.4894 24.4935ZM43.6956 18.144L47.8661 22.02L48.5469 21.2875L44.3764 17.4115L43.6956 18.144ZM47.8656 22.0195C48.9261 23.008 50.5708 23.0027 51.6459 22.0234L50.9725 21.2841C50.2746 21.9198 49.2196 21.9145 48.5474 21.288L47.8656 22.0195ZM51.6513 22.0184C52.8037 20.9374 52.8299 19.1387 51.7236 18.0302L51.0158 18.7366C51.7227 19.4449 51.7086 20.5936 50.9671 21.2891L51.6513 22.0184ZM51.7236 18.0302L43.6444 9.93497L42.9366 10.6414L51.0158 18.7366L51.7236 18.0302ZM43.6444 9.93497C43.4746 9.76477 43.4653 9.50087 43.6057 9.30835L42.7976 8.71919C42.3994 9.26533 42.3819 10.0856 42.9366 10.6414L43.6444 9.93497ZM43.6057 9.30835C43.6712 9.21844 43.7679 9.14936 43.8974 9.12203L43.691 8.14357C43.3091 8.22413 43.0022 8.43862 42.7976 8.71919L43.6057 9.30835ZM43.8838 9.1247C44.6717 8.98117 45.606 8.77475 46.4721 8.49848C47.3243 8.22668 48.1674 7.87009 48.7285 7.4016L48.0875 6.634C47.6815 6.97301 46.9934 7.28261 46.1683 7.54577C45.3572 7.80447 44.4681 8.0018 43.7046 8.1409L43.8838 9.1247ZM48.7318 7.39874C48.8799 7.27284 48.9797 7.21063 49.0379 7.18306C49.1014 7.15305 49.0736 7.18349 48.993 7.16703C48.9489 7.15802 48.904 7.13752 48.8657 7.10642C48.8292 7.07685 48.8092 7.04649 48.7997 7.0287C48.7844 7 48.7924 6.99777 48.7953 7.0471L49.7936 6.9885C49.7864 6.86624 49.7617 6.70756 49.6822 6.55835C49.5943 6.39351 49.4345 6.23653 49.193 6.18724C48.9764 6.14303 48.7723 6.20248 48.6104 6.27909C48.4433 6.35813 48.2685 6.48013 48.0841 6.63686L48.7318 7.39874ZM48.7959 7.05607C48.8196 7.36451 48.6386 7.69586 48.3228 7.87473L48.8156 8.74487C49.4265 8.39886 49.8499 7.72084 49.793 6.97953L48.7959 7.05607ZM48.3158 7.87873C47.7253 8.22577 46.9317 8.42891 46.028 8.52104C45.1303 8.61257 44.1601 8.59111 43.2427 8.51546L43.1606 9.51208C44.1145 9.59074 45.1503 9.61571 46.1295 9.51588C47.1028 9.41665 48.0572 9.19065 48.8225 8.74087L48.3158 7.87873ZM43.2427 8.51546C42.2437 8.43307 41.3205 8.28758 40.6419 8.16141L40.4591 9.14456C41.16 9.27489 42.1182 9.42612 43.1606 9.51208L43.2427 8.51546ZM40.6461 8.16221C39.7533 7.98826 38.8203 8.28592 38.1819 8.9256L38.8897 9.632C39.2989 9.22193 39.8971 9.03509 40.4549 9.14376L40.6461 8.16221ZM38.1819 8.92559L38.1013 9.00634L38.8091 9.71276L38.8897 9.63201L38.1819 8.92559ZM38.1013 9.00635C37.1518 9.95768 35.9044 10.5731 34.565 10.7409L34.6893 11.7331C36.2511 11.5375 37.7035 10.8205 38.8091 9.71275L38.1013 9.00635ZM34.5706 10.7402C33.8119 10.8266 33.0594 10.6194 32.4617 10.1403L31.8363 10.9206C32.649 11.572 33.6694 11.8493 34.6837 11.7338L34.5706 10.7402ZM32.464 10.1421C32.2756 9.98928 32.2722 9.72391 32.4436 9.56937L31.7739 8.82673C31.1394 9.39894 31.1763 10.3852 31.834 10.9187L32.464 10.1421ZM32.4392 9.57331L37.0932 5.47524L36.4324 4.72473L31.7783 8.82279L32.4392 9.57331ZM37.0928 5.47559L38.4024 4.3249L37.7423 3.57369L36.4327 4.72438L37.0928 5.47559ZM38.4025 4.32485C40.6091 2.38535 43.4538 1.30005 46.3932 1.30005V0.300049C43.2079 0.300049 40.1292 1.47574 37.7423 3.57374L38.4025 4.32485ZM46.3932 1.30005C48.1352 1.30005 49.8224 1.99499 51.0588 3.21507L51.7612 2.50328C50.3381 1.09898 48.3987 0.300049 46.3932 0.300049V1.30005ZM51.0588 3.21515L52.3483 4.48696L53.0505 3.77501L51.7611 2.5032L51.0588 3.21515ZM52.348 4.48673C55.0093 7.11519 55.5425 11.0972 53.9264 14.2596L54.8169 14.7147C56.6258 11.1749 56.0308 6.71854 53.0507 3.77525L52.348 4.48673ZM53.9264 14.2596C53.3094 15.4667 54.3447 16.8166 55.6558 16.6166L55.5051 15.6281C54.9627 15.7108 54.5877 15.163 54.8168 14.7148L53.9264 14.2596ZM55.6608 16.6159L67.6888 14.6577L67.5281 13.6707L55.5001 15.6289L55.6608 16.6159ZM67.6793 14.6591C68.1139 14.5969 68.4085 15.058 68.189 15.4179L69.0427 15.9386C69.7097 14.845 68.7955 13.4892 67.5376 13.6692L67.6793 14.6591ZM68.1903 15.4158L67.0822 17.2125L67.9333 17.7374L69.0414 15.9407L68.1903 15.4158ZM67.0824 17.2121C66.2986 18.4807 67.6282 19.9717 68.9641 19.3633L68.5496 18.4532C68.1125 18.6523 67.6692 18.1649 67.9331 17.7377L67.0824 17.2121ZM68.9606 19.3648L71.5395 18.2142L71.132 17.3009L68.5531 18.4516L68.9606 19.3648ZM71.5404 18.2137C72.8274 17.6363 74.2285 17.3289 75.6473 17.3289V16.3289C74.0843 16.3289 72.5439 16.6675 71.1311 17.3014L71.5404 18.2137ZM47.8526 22.0069C48.5619 22.7177 48.5417 23.8829 47.8082 24.5553L48.484 25.2924C49.6443 24.2287 49.6644 22.4067 48.5604 21.3005L47.8526 22.0069ZM47.8052 24.5581C47.1331 25.1846 46.078 25.1899 45.3801 24.5542L44.7067 25.2935C45.7818 26.2728 47.4265 26.2781 48.487 25.2896L47.8052 24.5581ZM45.3838 24.5576L41.2133 20.6816L40.5325 21.4141L44.703 25.2901L45.3838 24.5576ZM0.584696 17.4498C1.43037 17.4209 2.00347 17.4936 2.55322 17.6667C3.11801 17.8445 3.67925 18.1339 4.5117 18.5814L4.98525 17.7007C4.16561 17.26 3.52292 16.9236 2.85354 16.7128C2.16914 16.4973 1.47786 16.4187 0.550558 16.4503L0.584696 17.4498ZM4.51035 18.5807L6.74671 19.792L7.22296 18.9127L4.9866 17.7014L4.51035 18.5807ZM6.74742 19.7923C8.90608 20.957 11.3367 19.8232 12.5682 17.3985L11.6766 16.9456C10.6114 19.043 8.73042 19.726 7.22225 18.9123L6.74742 19.7923ZM12.5682 17.3985C13.6327 15.3026 15.5633 14.5479 17.1588 15.3389L17.603 14.4429C15.3705 13.3362 12.9089 14.5195 11.6766 16.9456L12.5682 17.3985ZM17.1591 15.339L20.4633 16.9742L20.9069 16.0779L17.6027 14.4427L17.1591 15.339ZM20.4639 16.9745C21.8347 17.6507 23.3108 18.0309 24.8073 18.1154L24.8636 17.117C23.4991 17.04 22.1546 16.6934 20.9063 16.0776L20.4639 16.9745ZM24.8169 18.1158C24.9212 18.1197 25.0252 18.117 25.1285 18.1081L25.0419 17.1118C24.9794 17.1173 24.9166 17.1189 24.854 17.1165L24.8169 18.1158ZM25.1285 18.1081C25.6972 18.0587 26.2463 17.8174 26.6711 17.4131L25.9816 16.6888C25.7241 16.9339 25.3887 17.0817 25.0419 17.1118L25.1285 18.1081ZM26.6803 17.4041L28.1913 15.8901L27.4835 15.1837L25.9725 16.6977L26.6803 17.4041ZM28.1913 15.8901C28.7817 15.2985 29.754 15.2985 30.3444 15.8901L31.0523 15.1837C30.0712 14.2006 28.4646 14.2006 27.4835 15.1837L28.1913 15.8901ZM30.3445 15.8901L30.425 15.9708L31.1328 15.2644L31.0522 15.1837L30.3445 15.8901ZM30.425 15.9708C31.016 16.563 31.016 17.5389 30.425 18.131L31.1328 18.8374C32.1134 17.855 32.1134 16.2469 31.1328 15.2644L30.425 15.9708ZM30.425 18.131L27.3626 21.1995L28.0704 21.906L31.1328 18.8374L30.425 18.131ZM27.3626 21.1995C26.7722 21.7911 25.7999 21.7911 25.2095 21.1995L24.5017 21.906C25.4828 22.889 27.0893 22.889 28.0704 21.906L27.3626 21.1995ZM25.2095 21.1996L25.1289 21.1188L24.4211 21.8252L24.5017 21.9059L25.2095 21.1996ZM25.1289 21.1188C24.538 20.5267 24.538 19.5507 25.1289 18.9586L24.4211 18.2522C23.4406 19.2347 23.4406 20.8427 24.4211 21.8252L25.1289 21.1188ZM24.775 18.6054C25.0992 18.986 25.0994 18.9859 25.0995 18.9858C25.0996 18.9857 25.0997 18.9856 25.0998 18.9855C25.1001 18.9853 25.1003 18.9851 25.1005 18.9849C25.101 18.9845 25.1015 18.984 25.1021 18.9836C25.1031 18.9827 25.1043 18.9816 25.1057 18.9804C25.1083 18.9781 25.1115 18.9753 25.1152 18.972C25.1224 18.9655 25.1316 18.9571 25.1423 18.9468C25.1636 18.9265 25.1914 18.8985 25.223 18.8636C25.2852 18.7948 25.3665 18.694 25.4401 18.5659C25.5866 18.3113 25.7255 17.9038 25.5546 17.4378L24.6158 17.7821C24.6492 17.8733 24.633 17.9635 24.5733 18.0673C24.5439 18.1185 24.5093 18.162 24.4814 18.1927C24.4679 18.2077 24.4572 18.2183 24.4512 18.2241C24.4482 18.2269 24.4465 18.2285 24.4463 18.2286C24.4462 18.2287 24.4465 18.2284 24.4473 18.2278C24.4476 18.2274 24.4481 18.227 24.4487 18.2265C24.449 18.2263 24.4493 18.226 24.4497 18.2257C24.4498 18.2255 24.45 18.2254 24.4502 18.2252C24.4503 18.2251 24.4505 18.225 24.4505 18.225C24.4507 18.2248 24.4508 18.2247 24.775 18.6054ZM25.5546 17.4378C25.4715 17.2111 25.3243 16.9994 25.1149 16.8053L24.4351 17.5388C24.5496 17.6449 24.5961 17.7285 24.6158 17.7821L25.5546 17.4378ZM25.1099 16.8007C24.7199 16.4491 24.3722 16.0959 24.1214 15.8298C23.9963 15.6971 23.896 15.5867 23.8273 15.51C23.793 15.4717 23.7666 15.4418 23.749 15.4217C23.7403 15.4117 23.7337 15.4042 23.7294 15.3993C23.7273 15.3968 23.7258 15.395 23.7248 15.3939C23.7243 15.3934 23.724 15.393 23.7238 15.3928C23.7237 15.3927 23.7237 15.3926 23.7237 15.3926C23.7237 15.3926 23.7237 15.3926 23.7237 15.3926C23.7237 15.3926 23.7237 15.3926 23.7237 15.3926C23.7237 15.3926 23.7237 15.3927 23.3445 15.7186C22.9653 16.0444 22.9654 16.0445 22.9654 16.0445C22.9654 16.0445 22.9654 16.0446 22.9655 16.0446C22.9655 16.0446 22.9656 16.0447 22.9656 16.0448C22.9658 16.045 22.9659 16.0452 22.9662 16.0454C22.9666 16.0459 22.9672 16.0466 22.9679 16.0474C22.9694 16.0491 22.9714 16.0515 22.9741 16.0545C22.9793 16.0606 22.987 16.0694 22.9969 16.0807C23.0166 16.1032 23.0453 16.1358 23.0822 16.1769C23.1558 16.2592 23.262 16.3759 23.3937 16.5157C23.6567 16.7947 24.0242 17.1683 24.4402 17.5434L25.1099 16.8007ZM23.6984 15.3654C20.4883 12.1489 20.4883 6.9537 23.6984 3.7372L22.9906 3.03079C19.3909 6.63766 19.3909 12.4649 22.9906 16.0718L23.6984 15.3654ZM23.6984 3.7372C26.908 0.521241 32.0911 0.521241 35.3007 3.7372L36.0085 3.03079C32.4083 -0.576624 26.5909 -0.576624 22.9906 3.03079L23.6984 3.7372ZM35.3007 3.7372L36.6707 5.10995L37.3785 4.40354L36.0085 3.03079L35.3007 3.7372Z" fill="#7BBFFD"/>
</svg>
