<svg width="82" height="36" viewBox="0 0 82 36" fill="none" xmlns="http://www.w3.org/2000/svg">
<path d="M81 22.3389C75.7335 20.0528 74.9239 15.1827 71.4702 16.4968C68.0166 17.8109 67.5556 23.4124 69.464 24.8789C71.3723 26.3454 74.0319 25.1825 75.1167 23.1212C76.4374 20.6116 76.0421 15.6709 73.2257 14.9702C70.9482 14.4036 69.075 15.2679 67.9592 16.7482C66.9877 18.0372 66.3771 20.6246 66.2355 22.3941C66.2007 22.8281 65.9298 23.2153 65.5226 23.355L56.2999 26.5208C53.4531 27.6539 50.7104 20.9712 46.7788 22.1044C42.3696 23.3752 41.7416 32.3372 46.1984 33.3071C50.6552 34.2771 53.4138 28.7871 53.4138 25.8949C53.4138 23.0028 51.691 19.1488 47.19 19.7154C43.754 20.148 41.1254 23.3523 41.1254 26.9084C41.1254 30.0813 41.1932 30.6599 40.6238 31.2265C40.0544 31.793 39.5283 32.3 38.1618 32.7532C36.7953 33.2065 35.4508 33.3071 34.6916 33.3071C27.4797 32.9294 12.6863 32.1866 11.3198 32.1866C9.95337 32.1866 9.63948 30.4869 9.63948 29.9203C9.63948 29.3537 9.63948 29.1271 9.63948 28.2205C9.63948 27.314 10.7243 26.5208 11.2936 26.5208H27.6261C29.448 26.5208 29.9035 28.0317 29.9035 28.7871L29.8496 31.62C29.8496 33.8864 28.224 35 26.9748 35C23.5586 35 12.4324 34.1208 11.2936 34.1208C8.44679 34.1208 7.66936 31.1717 7.55471 30.6038C6.98534 27.7835 6.65989 21.0345 9.50673 10.836C11.7842 2.67711 20.9989 0.789483 25.5539 1.01788C40.5472 1.77333 68.9671 2.90607 71.6726 3.29068C75.6582 3.85727 76.1461 6.12362 76.2277 7.82338C76.2277 9.14542 76.3784 11.2996 76.3784 12.4327C76.3784 13.5659 75.9878 13.8981 75.798 13.8981C74.4695 14.087 76.7153 11.7826 71.6726 11.7832C71.2172 11.7833 70.6158 11.0347 70.6158 10.6569C70.6158 9.90148 70.6158 8.16394 70.6158 7.2574C70.6158 6.35086 70.2362 6.12423 70.0464 6.12423C69.8566 6.12423 68.8757 6.13111 68.4202 6.13111C67.9647 6.13111 67.8508 6.88656 67.8508 7.26429C67.8508 8.2086 67.7689 9.75039 67.7689 10.6569C67.7689 11.5635 67.3894 11.7901 67.1996 11.7901C63.7834 12.3567 57.8939 13.483 57.4384 13.483C56.2997 13.483 56.3814 12.7281 56.3814 12.3504C56.3814 10.8395 56.2999 8.72992 56.2999 7.82338C56.2999 6.91684 56.2999 6.12362 55.1612 6.12362C54.7816 6.12362 54.9334 6.12362 54.0224 6.12362C52.6442 6.12362 52.8837 6.99405 52.8837 7.82338C52.8837 9.33428 52.9654 12.0167 52.9654 12.9233C52.9654 13.8298 52.7441 14.4495 51.745 14.6224C47.3798 15.3779 37.2678 16.8825 36.1291 16.8825C34.9904 16.8825 34.9904 16.5048 34.9904 16.3159C34.9904 16.1271 34.9904 15.636 34.9904 15.1827C34.9904 14.7295 34.9192 14.0498 35.5597 14.0502C36.2003 14.0505 35.7589 14.0496 36.6985 14.0496C37.6381 14.0496 37.9189 12.917 37.9189 12.3504C37.9189 11.7838 37.9189 10.1974 37.9189 8.3843C37.9189 6.57122 37.1597 6.11795 36.7802 6.11795C36.4006 6.11795 35.7588 6.10338 34.8478 6.10705C33.1397 6.11394 33.1397 7.61795 33.1397 8.3734V16.8722C32.5983 22.5444 26.8824 23.1212 24.4151 23.1212L12.0345 23.115C6.01567 23.115 3.25705 25.1304 1 25.1304" stroke="#7BBFFD" stroke-linecap="round"/>
</svg>
