<svg width="40" height="40" viewBox="0 0 40 40" fill="none" xmlns="http://www.w3.org/2000/svg">
<g clip-path="url(#clip0_130_8370)">
<rect opacity="0.2" width="40" height="40" rx="8" fill="#C099FF"/>
<path d="M27.5295 17.156L20.9334 12.0165C20.6376 11.7843 20.2716 11.6596 19.8956 11.6627C19.5195 11.6658 19.1557 11.7965 18.8637 12.0336L12.4446 17.2118C12.2506 17.3675 12.0942 17.5648 11.987 17.7892C11.8797 18.0136 11.8243 18.2593 11.825 18.508V27.4839C11.8252 27.708 11.9144 27.9229 12.0729 28.0814C12.2314 28.2399 12.4463 28.329 12.6704 28.3293H27.326C27.5502 28.329 27.7651 28.2399 27.9236 28.0814C28.0821 27.9229 28.1713 27.708 28.1715 27.4838V18.4697C28.1723 18.2162 28.1148 17.9659 28.0035 17.7381C27.8922 17.5103 27.73 17.3111 27.5295 17.156ZM17.6423 27.496H15.975V24.2639C15.9757 24.0432 16.0638 23.8319 16.2201 23.6761C16.3763 23.5203 16.588 23.4328 16.8086 23.4328C17.0293 23.4328 17.2409 23.5203 17.3972 23.6761C17.5535 23.8319 17.6416 24.0432 17.6423 24.2639V27.496ZM24.0211 27.496H22.3542V24.2639C22.3549 24.0433 22.443 23.832 22.5992 23.6762C22.7554 23.5205 22.967 23.433 23.1876 23.433C23.4082 23.433 23.6198 23.5205 23.7761 23.6762C23.9323 23.832 24.0204 24.0433 24.0211 24.2639V27.496ZM19.998 21.4236C19.4042 21.4235 18.8238 21.2474 18.33 20.9175C17.8363 20.5875 17.4515 20.1186 17.2243 19.57C16.9971 19.0214 16.9376 18.4177 17.0535 17.8353C17.1693 17.2529 17.4553 16.7179 17.8752 16.2981C18.2951 15.8782 18.83 15.5922 19.4124 15.4764C19.9948 15.3605 20.5985 15.42 21.1471 15.6472C21.6958 15.8744 22.1647 16.2592 22.4946 16.7529C22.8245 17.2466 23.0006 17.8271 23.0007 18.4209C22.9998 19.217 22.6832 19.9802 22.1203 20.5432C21.5574 21.1061 20.7941 21.4227 19.998 21.4236ZM21.8322 17.2845C21.8709 17.3232 21.9016 17.3691 21.9225 17.4197C21.9435 17.4702 21.9543 17.5244 21.9543 17.5791C21.9543 17.6338 21.9435 17.688 21.9225 17.7386C21.9016 17.7891 21.8709 17.835 21.8322 17.8737L20.0204 19.6851C19.9455 19.7601 19.8447 19.8037 19.7387 19.8069C19.6327 19.8102 19.5294 19.7728 19.45 19.7026L18.1232 18.5291C18.0822 18.4929 18.0488 18.449 18.0248 18.3998C18.0008 18.3507 17.9867 18.2973 17.9834 18.2427C17.98 18.1881 17.9874 18.1334 18.0052 18.0816C18.023 18.0299 18.0508 17.9822 18.087 17.9412C18.1232 17.9002 18.1672 17.8668 18.2163 17.8428C18.2655 17.8188 18.3189 17.8047 18.3735 17.8013C18.4281 17.798 18.4828 17.8054 18.5345 17.8232C18.5862 17.8409 18.634 17.8687 18.6749 17.905L19.7084 18.8188L21.2431 17.2845C21.2817 17.2458 21.3277 17.2151 21.3782 17.1942C21.4287 17.1733 21.4829 17.1625 21.5376 17.1625C21.5923 17.1625 21.6465 17.1733 21.697 17.1942C21.7476 17.2152 21.7935 17.2458 21.8322 17.2845Z" fill="#E39BFD"/>
</g>
<defs>
<clipPath id="clip0_130_8370">
<rect width="40" height="40" rx="8" fill="white"/>
</clipPath>
</defs>
</svg>
