<svg width="24" height="25" viewBox="0 0 24 25" fill="none" xmlns="http://www.w3.org/2000/svg">
<rect y="0.5" width="24" height="24" rx="12" fill="#8DE8FE"/>
<path d="M13.024 10.292V18.5H11.04V10.292H13.024ZM13.296 7.9C13.296 8.07067 13.2613 8.23067 13.192 8.38C13.1227 8.52933 13.0293 8.66 12.912 8.772C12.8 8.884 12.6667 8.97467 12.512 9.044C12.3573 9.108 12.192 9.14 12.016 9.14C11.8453 9.14 11.6827 9.108 11.528 9.044C11.3787 8.97467 11.248 8.884 11.136 8.772C11.024 8.66 10.9333 8.52933 10.864 8.38C10.8 8.23067 10.768 8.07067 10.768 7.9C10.768 7.724 10.8 7.55867 10.864 7.404C10.9333 7.24933 11.024 7.116 11.136 7.004C11.248 6.892 11.3787 6.804 11.528 6.74C11.6827 6.67067 11.8453 6.636 12.016 6.636C12.192 6.636 12.3573 6.67067 12.512 6.74C12.6667 6.804 12.8 6.892 12.912 7.004C13.0293 7.116 13.1227 7.24933 13.192 7.404C13.2613 7.55867 13.296 7.724 13.296 7.9Z" fill="black"/>
</svg>
