<svg xmlns="http://www.w3.org/2000/svg" width="16" height="16" viewBox="0 0 16 16" fill="none">
  <path d="M8 11C9.65688 11 11 9.65687 11 8V3C11 1.34312 9.65688 0 8 0C6.34312 0 5 1.34312 5 3V8C5 9.65687 6.34312 11 8 11ZM13 6H12.5C12.2238 6 12 6.22375 12 6.5V8C12 10.3375 9.98469 12.2131 7.60031 11.9806C5.52219 11.7778 4 9.90969 4 7.82188V6.5C4 6.22375 3.77625 6 3.5 6H3C2.72375 6 2.5 6.22375 2.5 6.5V7.755C2.5 10.5562 4.49906 13.0534 7.25 13.4328V14.5H5.5C5.22375 14.5 5 14.7238 5 15V15.5C5 15.7762 5.22375 16 5.5 16H10.5C10.7762 16 11 15.7762 11 15.5V15C11 14.7238 10.7762 14.5 10.5 14.5H8.75V13.4447C11.4284 13.0772 13.5 10.7781 13.5 8V6.5C13.5 6.22375 13.2762 6 13 6Z" fill="white"/>
</svg>