<svg width="82" height="36" viewBox="0 0 82 36" fill="none" xmlns="http://www.w3.org/2000/svg">
<path d="M1 26.4261C8.22022 23.9131 11.4508 27.2216 16.8996 29.8144C25.1621 33.7461 32.4077 35 39.3235 35C43.7244 35 46.5876 34.2941 48.7981 33.3797C50.6779 32.6021 54.1419 30.5116 56.1828 27.3137C58.7338 23.3163 62.7618 24.782 64.1045 25.4482C65.1227 25.9051 66.7039 26.8144 67.8541 27.9565M67.8541 27.9565C68.736 28.8321 69.3645 29.8445 69.2918 30.8947C69.0822 33.9197 65.5195 33.9197 66.3578 30.8947C66.5848 30.0755 67.0744 29.0036 67.8541 27.9565ZM67.8541 27.9565C69.9533 25.1369 74.1557 22.4964 81 25.4482M38.2302 14.1573C33.9211 14.8202 29.3247 16.5277 29.3822 17.8735C29.4588 19.8019 31.3548 30.1068 41.2178 29.6448C49.9318 29.223 50.5638 18.436 50.5446 15.5233C50.5446 15.2421 50.7553 15.0211 51.0234 15.0412C52.4789 15.1015 53.0726 16.3067 52.4023 19.6613C51.981 21.7906 49.0125 24.8439 46.7143 24.8841L44.6459 24.8439C43.8799 24.8841 42.7691 24.8238 40.5858 24.9243C33.3848 25.2457 27.6202 27.4151 27.716 29.7854C27.8117 32.1558 33.7296 33.8029 40.9305 33.4815C48.1315 33.1601 53.8961 30.9907 53.8004 28.6204C53.7429 27.1741 53.1301 26.1898 49.7403 25.5671C49.4913 25.5269 49.3381 25.2658 49.4147 25.0247V25.0046C49.4721 24.8037 49.6445 24.6832 49.836 24.7033C51.732 24.8238 54.5664 21.2884 55.2367 18.6369C56.2518 14.6194 53.245 15.4831 51.2532 16.1862L49.3189 16.9294C47.4804 17.9941 44.1863 18.7976 40.3751 18.9783C34.5148 19.2395 29.6886 17.8936 29.612 15.9652C29.5354 14.0368 34.2275 12.2691 40.0879 12.008C45.0098 11.787 48.323 12.6909 49.2998 14.1172C49.4913 14.4185 49.2232 14.8001 48.8976 14.6595C47.7485 14.1774 45.2205 13.8359 41.6775 13.8761C41.5434 13.8761 37.9237 9.41668 40.3751 6.22276C42.8265 3.02884 38.8622 1 38.8622 1C39.0573 5.63915 36.3468 7.43499 35.8771 7.9277C35.3456 8.48514 34.5485 9.32129 35.0799 10.7149C35.5051 11.8298 37.3572 13.4744 38.2302 14.1573Z" stroke="#7BBFFD" stroke-miterlimit="10" stroke-linecap="round"/>
</svg>
