<svg xmlns="http://www.w3.org/2000/svg" width="16" height="16" viewBox="0 0 16 16" fill="none">
  <path d="M11.6062 10.4839L11.5746 10.5243H11.6259H12.1353C12.3287 10.5243 12.513 10.5999 12.6489 10.7357L15.7646 13.8515C16.0456 14.1355 16.0456 14.5948 15.7616 14.8788L14.8772 15.7633L14.8771 15.7634C14.5963 16.0472 14.1371 16.0473 13.8531 15.7633L10.7372 12.6474C10.6013 12.5115 10.5258 12.3273 10.5258 12.1338V11.6244V11.5731L10.4854 11.6047C9.38642 12.4639 8.0042 12.9745 6.50048 12.9745C2.92339 12.9745 0.025 10.0761 0.025 6.49901C0.025 2.92193 2.92339 0.0235352 6.50048 0.0235352C10.0776 0.0235352 12.976 2.92193 12.976 6.49901C12.976 8.00273 12.4654 9.38495 11.6062 10.4839ZM2.47518 6.49901C2.47518 8.72549 4.27714 10.5243 6.50048 10.5243C8.72696 10.5243 10.5258 8.72234 10.5258 6.49901C10.5258 4.27253 8.72381 2.47372 6.50048 2.47372C4.27399 2.47372 2.47518 4.27568 2.47518 6.49901Z" fill="black" stroke="white" stroke-width="0.05"/>
</svg>