<svg xmlns="http://www.w3.org/2000/svg" width="82" height="36" viewBox="0 0 82 36" fill="none">
  <path d="M51.5828 25.3515V29.3722C51.5828 30.8559 50.3769 31.2267 49.774 31.2266H37.6126C26.76 31.2266 25.7928 30.2617 23.4865 29.087C21.034 27.8377 20.0608 25.8192 15.991 26.4261C11.9213 27.033 10.2922 30.4174 5.61261 32.9304C4.23625 33.6696 2.15315 33.8174 1 33.8174M51.5828 25.3515V6.7486C51.5828 5.94503 51.1125 4.3379 49.2313 4.3379H47.0608C46.8799 4.3379 46.5182 4.22663 46.5182 3.78158V2.76167C46.4579 2.17445 46.0298 1 44.7998 1H38.1978C37.5949 1.03091 36.389 1.44505 36.389 2.85439V3.78158C36.389 3.96702 36.2805 4.3379 35.8464 4.3379H33.7663C33.0428 4.39971 31.5958 4.9313 31.5958 6.56316V26.6833C31.6259 27.2705 32.0118 28.4449 33.3141 28.4449V29.3722C33.3443 29.6195 33.5312 30.1139 34.0376 30.1139C34.6707 30.1139 34.8516 29.5576 34.8516 29.2794C34.8516 29.0012 35.0324 28.2595 35.8464 28.2595H45.4329C45.7947 28.2905 46.5183 28.5564 46.5183 29.3722C46.5484 29.6195 46.7533 30.1139 47.3321 30.1139C47.9109 30.1139 48.0556 29.6195 48.0556 29.3722V28.4449H49.2313C49.5629 28.4449 50.2262 28.2409 50.2262 27.425V26.776C50.1357 26.4051 50.2443 25.6077 51.4019 25.3852C51.4573 25.3745 51.5177 25.3633 51.5828 25.3515ZM51.5828 25.3515C52.8773 25.1166 55.9974 24.664 57.4613 24.458C57.9135 24.3653 58.9806 24.4395 59.6318 25.4779C60.283 26.5164 59.7222 27.765 59.3605 28.2595L56.9186 32.2464C56.6775 32.71 56.4484 33.8226 57.4613 34.5644C58.4742 35.3062 59.7524 34.9353 60.2649 34.6571C62.6766 33.2045 68.9108 30.2993 74.5542 30.2993H81M36.2295 13.6318V22.668M46.1625 13.6318V22.668" stroke="#7BBFFD" stroke-miterlimit="10" stroke-linecap="round"/>
</svg>