<svg width="80" height="34" viewBox="0 0 80 34" fill="none" xmlns="http://www.w3.org/2000/svg">
<path d="M54.9383 33.9886C51.0518 33.9886 46.077 33.3917 40.8054 31.521C35.2653 29.5561 17.7574 21.8393 12.5226 19.5202C11.5841 19.1061 10.8944 18.2607 10.674 17.2612C10.397 16.0131 10.2161 13.1571 11.4654 12.7944C11.4767 12.7916 11.4852 12.7887 11.4965 12.7858L11.6067 12.763C11.7537 12.1233 12.1212 11.6406 12.6384 11.4121C13.7493 10.9266 17.715 9.38439 20.8977 8.1449C22.9244 7.35665 24.6741 6.67407 24.9708 6.54555C26.1184 6.04576 27.6929 5.85441 28.8659 6.06575C29.7732 5.57738 30.9152 5.56595 32.2663 6.02577C34.9826 6.9511 36.7973 9.64428 38.3491 12.4174C38.3491 12.4174 40.7545 16.3273 41.7127 17.8866C41.9473 17.5496 42.4618 17.1669 43.5726 17.2355C43.714 17.244 43.9231 17.2554 44.1606 17.2697C44.692 17.2983 45.3505 17.3354 45.7208 17.3668C46.402 17.4268 47.1143 17.4782 47.7447 17.5268C48.2506 17.5639 48.7029 17.5982 49.0477 17.6267C49.6074 17.6781 50.1049 18.0294 50.3451 18.5435L50.9868 19.9229C51.1394 20.2514 51.1111 20.6283 50.9104 20.9311C50.7098 21.231 50.3762 21.3995 50.0201 21.3823C48.5107 21.3109 45.571 21.1196 44.5987 21.031C44.3047 21.0053 44.0305 20.9539 43.7733 20.8825C44.2369 21.4566 44.7513 22.0363 45.2177 22.5104C48.57 25.909 55.9361 26.9657 58.2398 26.9657C59.4439 26.9886 62.7878 26.7144 63.8336 25.3121C64.1813 24.8466 64.2491 24.2897 64.0456 23.61C63.8082 22.816 63.4661 21.9507 62.9941 20.9454C62.8839 21.0596 62.7341 21.1281 62.5645 21.1367C61.855 21.1767 61.301 21.2395 60.812 21.2995C60.2156 21.3709 59.7011 21.4309 59.0736 21.4309C58.2539 21.4309 57.8667 20.5855 57.4936 19.7687C57.3975 19.5545 57.2957 19.3346 57.1826 19.1175C57.0017 18.7663 57.0046 18.3578 57.1883 18.0294C57.3607 17.7181 57.666 17.5268 58.025 17.5039L58.7033 17.4582C60.4587 17.3383 60.5519 17.3326 60.5859 17.3326C60.7215 17.3326 60.8572 17.3468 60.9901 17.3754C60.7724 16.9956 60.5915 16.6957 60.5039 16.5586C57.8752 12.3717 54.4211 8.69324 52.7958 7.17672C48.5107 3.18122 45.2234 1.99313 43.6461 1.64185C41.9276 1.25915 39.1434 0.825043 36.9641 0.865026C33.9622 0.916434 30.6155 1.88175 29.1966 2.55291C27.136 3.52965 14.3768 9.83278 12.6611 10.7353C11.5587 11.315 9.96167 11.3607 8.5936 10.8466C7.56755 10.4639 6.18252 9.6043 5.41934 7.68223C4.28588 4.80627 3.44639 4.26078 0.447376 4.42928C0.218422 4.44356 0.014908 4.26078 0.000775093 4.02659C-0.0133578 3.78954 0.167544 3.58677 0.399324 3.57534C3.78275 3.38399 4.92469 4.1294 6.21361 7.36236C6.86373 8.99312 8.03111 9.71854 8.89605 10.0413C10.0521 10.4725 11.3806 10.4468 12.2795 9.97272C13.998 9.06737 26.7799 2.75282 28.8461 1.77608C30.3329 1.07066 33.8322 0.0596427 36.9584 0.00252329C39.2112 -0.0374603 42.0745 0.405215 43.8355 0.799339C46.7045 1.43908 50.0936 3.47824 53.3781 6.5427C55.0344 8.08492 58.5479 11.832 61.2275 16.0959C61.4084 16.3844 61.9709 17.324 62.4429 18.2722C62.686 18.5406 62.9037 18.8548 63.0732 19.1861C63.9382 20.854 64.5063 22.182 64.8625 23.3644C65.1451 24.3125 65.0293 25.1408 64.5148 25.8319C62.9969 27.8682 58.432 27.8254 58.2398 27.8254C55.433 27.8254 48.0952 26.6402 44.6213 23.1188C43.55 22.0335 42.2978 20.4598 41.7693 19.5402C41.7382 19.4888 41.7127 19.4345 41.6873 19.3831C41.5177 19.1604 41.3453 18.909 41.1672 18.6177C40.3644 17.3097 37.6255 12.8601 37.6255 12.8601C35.6045 9.25587 33.9764 7.51658 32.0006 6.84543C31.3024 6.60838 30.6834 6.51699 30.1463 6.57126C30.7654 7.01108 31.0254 7.67652 30.8643 8.47904C30.5223 10.1612 30.1407 20.7026 30.4827 23.8356C30.5223 24.1983 30.2933 24.4896 29.9146 24.5639C29.1146 24.7181 26.8986 23.8442 26.664 22.9902C26.2287 21.3795 26.6611 10.0755 27.2265 8.23914C27.3961 7.68794 27.6335 7.22242 27.9416 6.84543C27.0653 6.82829 26.0817 7.00822 25.31 7.34237C24.9963 7.47945 23.3229 8.13062 21.2058 8.95599C18.0287 10.1926 14.0715 11.732 12.9776 12.2118C12.7996 12.2889 12.6752 12.4231 12.5904 12.5717L13.4525 12.3917C13.6758 12.3346 13.9132 12.3889 14.0941 12.5402C14.2779 12.6945 14.374 12.9315 14.3514 13.1714C14.3429 13.2685 14.3429 13.9225 14.3542 14.7907L14.4616 14.8136C14.4418 14.1596 14.4192 13.1486 14.4446 12.9458C14.4899 12.5631 14.7556 12.2404 15.1202 12.1233L16.6324 11.7234C16.8699 11.6635 17.1158 11.7234 17.2938 11.8891C17.4719 12.0519 17.5567 12.2918 17.52 12.5317C17.4691 12.8801 17.4436 14.0996 17.4578 15.4476L18.0881 15.5818C18.0598 14.1567 18.0598 12.6259 18.1277 12.1033C18.1814 11.692 18.4753 11.355 18.8767 11.2465C19.4279 11.0951 20.2448 10.8952 21.1097 10.6839C22.1754 10.4211 23.3851 10.1269 24.3716 9.85562C24.7504 9.75281 24.9963 9.88704 25.1094 9.97557C25.31 10.1298 25.4231 10.384 25.4231 10.6667C25.4118 11.9148 25.3383 15.3734 25.2931 16.8356C25.2846 17.1355 25.1404 17.4068 24.9002 17.581C24.6656 17.7524 24.3744 17.8038 24.0974 17.7295L18.9615 16.6414C19.0068 18.1865 19.0689 19.2004 19.1113 19.3974C19.1848 19.7573 18.9785 20.0686 18.6054 20.1543C18.0401 20.2856 17.0197 19.9029 16.8274 19.1261C16.6974 18.5949 16.6437 17.1498 16.6211 16.1445L15.3463 15.8732C15.3972 17.2383 15.4537 18.0751 15.4876 18.2208C15.5527 18.4378 15.4481 18.672 15.2361 18.7691C14.8828 18.9319 13.8935 18.5321 13.7408 18.2864C13.6645 18.1665 13.5712 18.0151 13.5175 15.4876L12.6356 15.302C12.6356 15.302 12.6102 15.2962 12.5961 15.2905C11.9855 15.0992 11.652 14.4652 11.5643 13.7826C11.3326 14.2424 11.1856 15.6418 11.505 17.0869C11.6661 17.8209 12.1749 18.4407 12.8674 18.7463C16.59 20.3942 35.4377 28.7193 41.0909 30.7242C50.6278 34.1057 59.1047 33.2546 61.7165 32.3121C63.4661 31.681 64.2802 29.9702 64.4611 28.5822C64.9671 24.6581 78.1107 25.5977 79.6088 25.7205C79.8434 25.7405 80.0158 25.9462 79.9989 26.1804C79.9791 26.4174 79.7784 26.5888 79.5438 26.5745C74.1987 26.1461 65.6059 26.3431 65.3034 28.6936C65.0914 30.3358 64.1134 32.3578 62.0048 33.1204C60.7639 33.5687 58.2483 34 54.944 34L54.9383 33.9886ZM29.0185 6.9768C28.5747 7.29953 28.244 7.80504 28.0349 8.48476C27.5063 10.1955 27.0767 21.2652 27.478 22.756C27.6363 23.0816 29.0553 23.7071 29.6149 23.7271C29.2927 20.2399 29.6771 10.0298 30.0276 8.29912C30.0785 8.04779 30.2283 7.30524 29.0157 6.9768H29.0185ZM60.5943 18.1865C60.535 18.1893 59.5965 18.255 58.7684 18.3093L58.09 18.355C58.0193 18.3607 57.9684 18.3893 57.9373 18.4464C57.9034 18.5064 57.8893 18.6092 57.943 18.7177C58.0617 18.9462 58.1691 19.1804 58.2709 19.406C58.5309 19.9772 58.8023 20.5712 59.0821 20.5712C59.6587 20.5712 60.1506 20.5141 60.7215 20.4456C61.1794 20.3913 61.691 20.3313 62.3355 20.2913C62.3044 20.0943 62.1829 19.6573 61.7448 18.7663C61.4762 18.4921 61.0692 18.1865 60.5943 18.1865ZM42.4137 18.929C43.0412 19.7144 43.7224 20.0886 44.6778 20.1771C45.6417 20.2656 48.5616 20.4541 50.0625 20.5284C50.1473 20.5284 50.1868 20.4855 50.2066 20.457C50.2264 20.4284 50.2547 20.3656 50.2179 20.2913L49.5763 18.9119C49.4661 18.672 49.2343 18.5092 48.9742 18.4864C48.6322 18.455 48.1856 18.4235 47.6853 18.3864C47.0493 18.3407 46.3342 18.2864 45.6502 18.2265C45.294 18.1951 44.6411 18.1579 44.1182 18.1294C43.8779 18.1151 43.6659 18.1037 43.5246 18.0951C42.9706 18.0608 42.555 18.1694 42.4081 18.3864C42.295 18.5521 42.3544 18.7862 42.4165 18.9319L42.4137 18.929ZM17.4691 16.313C17.5002 17.6124 17.5652 18.5863 17.6443 18.9062C17.6669 18.9919 17.7602 19.089 17.8931 19.1689C18.0118 19.2403 18.139 19.2803 18.2407 19.3003C18.1814 18.7234 18.1333 17.521 18.1051 16.4472L17.4691 16.313ZM14.6595 18.4207C14.6595 18.4207 14.6651 18.4407 14.6679 18.4492C14.6679 18.4407 14.6623 18.4321 14.6595 18.4207ZM14.4673 17.7752C14.504 17.7924 14.5464 17.8095 14.5888 17.8266C14.5464 17.2697 14.5096 16.4472 14.4814 15.6818L14.3627 15.6561C14.3938 16.8984 14.4362 17.5239 14.4644 17.7752H14.4673ZM18.9361 15.7475L24.2812 16.8785C24.2812 16.8785 24.3038 16.8842 24.3123 16.887C24.349 16.8984 24.3801 16.887 24.3971 16.8727C24.414 16.8585 24.4366 16.8356 24.4394 16.7928C24.4847 15.3419 24.5582 11.9319 24.5695 10.6724C23.5773 10.9437 22.3704 11.2408 21.3048 11.5007C20.4455 11.712 19.6343 11.9091 19.0915 12.0576C19.0237 12.0747 18.9728 12.1318 18.9643 12.2004C18.9078 12.6202 18.8965 13.9939 18.9361 15.7475ZM15.3096 14.9821L16.6013 15.2563C16.5928 14.2367 16.6042 13.1371 16.6522 12.5916L15.3463 12.9372C15.3181 12.9458 15.2841 12.9886 15.2785 13.0372C15.2672 13.1571 15.2785 13.9168 15.3096 14.9821ZM12.8307 14.4566L13.4977 14.5965C13.4893 14.0482 13.4893 13.5198 13.4949 13.2457L12.3869 13.477C12.4067 13.9454 12.5876 14.3623 12.8307 14.4566Z" fill="#7BBFFD"/>
</svg>
