<svg xmlns="http://www.w3.org/2000/svg" width="80" height="38" viewBox="0 0 80 38" fill="none">
  <g clip-path="url(#clip0_83_8359)">
    <path d="M56.2552 24.8933C54.6922 22.261 52.4954 18.1479 52.4954 15.9514C52.3639 15.0891 52.5837 14.2105 53.1067 13.5083C53.6297 12.8062 54.4131 12.3379 55.2849 12.2064C56.909 11.955 58.5864 12.5545 59.5867 13.8443C59.8109 14.1042 59.965 14.4159 60.0348 14.7504C60.3156 16.8612 58.0797 18.5698 55.8806 17.3511C54.9079 16.812 54.2879 15.8135 54.1238 14.723C53.7872 12.4856 54.5772 11.2346 55.4632 10.5414C56.5294 9.70732 57.9806 9.57193 59.2574 10.0337C60.3094 10.4144 61.2176 11.1055 61.8593 12.0134C62.501 12.9213 62.8451 14.0022 62.8451 15.1098C62.8451 18.0941 57.7074 25.6096 57.7074 25.6096C57.7074 25.6096 56.7598 26.979 55.1037 27.4909C45.3071 30.5192 37.7676 20.1548 30.4361 22.7968C27.292 23.9298 27.3248 26.3792 28.1521 27.1154C28.9795 27.8517 31.098 24.9238 27.292 22.8786C17.115 18.6897 3.11374 26.5722 -2.43237 25.6096" stroke="#7BBFFD" stroke-linecap="round" stroke-linejoin="round"/>
  </g>
  <defs>
    <clipPath id="clip0_83_8359">
      <rect width="80" height="38" fill="white"/>
    </clipPath>
  </defs>
</svg>