<svg width="82" height="26" viewBox="0 0 82 26" fill="none" xmlns="http://www.w3.org/2000/svg">
<path d="M52.8808 6.4064C53.3458 4.51989 57.7985 4.57865 58.0345 6.36339C58.2286 7.83062 55.0672 7.47431 53.2125 7.10537C53.0453 7.10537 52.878 6.80447 52.8808 6.4064ZM52.8808 6.4064C52.8551 6.51047 52.8416 6.62047 52.8416 6.73642C52.8416 7.47431 53.0366 7.55609 54.9866 9.12408C56.3516 10.2217 57.4603 12.0643 56.7185 12.4333C55.9766 12.8022 56.0133 12.0643 54.122 12.0643C52.0758 12.0643 51.0792 13.1423 49.7814 14.546L49.7185 14.614M52.8808 6.4064C52.8911 4.92119 54.7471 4.22846 56.2089 4.40903C58.7661 4.72491 60.262 6.31895 61.4231 8.22107C65.3873 14.7153 73.9243 17.5875 80.0043 13.053C80.3382 12.804 80.6703 12.5526 81 12.3023M49.7185 14.614C49.1733 15.2035 48.5718 15.8476 47.8164 16.4917C46.0854 17.9675 34.8341 17.9675 33.297 16.4958C32.9785 16.1909 32.2687 15.4815 31.4055 14.7219M49.7185 14.614C49.3512 14.3202 49.0712 13.964 48.9292 13.5401C48.436 12.0684 47.4987 12.0643 46.7036 12.0643C42.3762 12.0643 35.9468 12.0684 34.4631 12.0684C32.9794 12.0684 32.6085 12.9252 32.6085 13.5401C32.6085 13.9532 32.0918 14.3663 31.4055 14.7219M49.7185 14.614C51.2697 15.8545 54.3783 15.9814 55.2349 15.3848C56.7879 14.3032 56.9911 13.9848 57.4603 15.3848C57.8312 16.4917 58.944 24.9816 56.3476 24.9816H53.6979C53.2033 24.9816 52.2492 25.2767 52.2492 23.5058C52.2492 23.1368 52.2492 22.03 49.9886 22.03C47.8903 22.03 36.2644 22.153 30.7005 22.03C29.9587 22.03 28.8811 22.2513 28.8811 23.1368C28.8811 24.2437 28.846 24.9816 27.3623 24.9816H24.8009C24.43 24.9816 23.3172 24.7602 23.3172 22.3989C23.076 19.5023 23.2627 15.1086 24.5895 11.8681C25.5888 9.42747 27.0397 7.64104 29.6367 7.64104H46.4066C50.6966 7.64104 52.7653 6.72612 51.2816 4.6692L49.5627 2.23627C48.7201 1.21707 47.4196 1 46.5294 1H33.8905C33.6433 1 32.1842 1 31.0715 2.10684C29.9587 3.21368 28.8273 6.15495 28.1573 6.73642C28.0805 6.8031 27.9836 6.86775 27.8702 6.92962M31.4055 14.7219C29.6567 13.1831 26.9813 11.2926 25.8017 12.4333C23.5449 14.6154 26.6736 15.7538 28.1573 15.7538C28.6223 15.7538 30.253 15.319 31.4055 14.7219ZM27.8702 6.92962C27.9092 7.10603 27.9439 7.33303 27.7905 7.48475C14.9905 20.1368 4.03036 11.0498 1 8.00213M27.8702 6.92962C27.6687 6.0191 25.8835 5.36443 25.0605 5.36443C24.078 5.36443 22.9155 5.36443 22.9155 6.73642C22.9155 8.00102 26.5349 7.65816 27.8702 6.92962Z" stroke="#7BBFFD" stroke-linecap="round"/>
</svg>
