<svg width="40" height="40" viewBox="0 0 40 40" fill="none" xmlns="http://www.w3.org/2000/svg">
<rect opacity="0.2" width="40" height="40" rx="8" fill="#F3BB67"/>
<path d="M27.9124 26.8711C27.9124 26.8711 22.9125 26.8711 19.5208 26.8711C19.2791 27.1878 19.0208 27.4711 18.7625 27.7044H27.9208C28.1541 27.7044 28.3375 27.5211 28.3375 27.2878C28.3375 27.0544 28.1541 26.8711 27.9208 26.8711H27.9124Z" fill="#F3BB67"/>
<path d="M20.5709 13.7544C20.0793 13.2794 19.5043 12.9044 18.8793 12.6627C18.2543 12.421 17.5793 12.2877 16.8959 12.296C16.2126 12.2877 15.5376 12.4127 14.9126 12.6627C14.2876 12.9127 13.7126 13.2794 13.2209 13.7544C12.2459 14.7127 11.6876 16.0127 11.6626 17.3877C11.6626 19.6294 14.2626 27.7044 16.8959 27.7044C19.5293 27.7044 22.1293 19.6294 22.1293 17.3877C22.1043 16.021 21.5459 14.7127 20.5626 13.7627L20.5709 13.7544ZM17.3793 16.4377C17.4209 16.4544 17.4626 16.4794 17.5043 16.496C17.6126 16.546 17.7126 16.621 17.8043 16.696C17.8376 16.7294 17.8793 16.7544 17.9043 16.7877C18.1293 17.0294 18.2543 17.346 18.2709 17.671C18.2709 17.7377 18.2709 17.796 18.2626 17.8627C18.2626 17.9294 18.2459 17.996 18.2293 18.0627C18.2126 18.1294 18.1876 18.1877 18.1626 18.2544C18.1376 18.321 18.1126 18.3794 18.0793 18.4377C18.0459 18.496 18.0043 18.546 17.9543 18.6044C17.9126 18.6544 17.8709 18.7127 17.8209 18.7544C17.7709 18.8044 17.7126 18.8377 17.6543 18.8794C17.5959 18.9127 17.5459 18.9544 17.4793 18.9794C17.4209 19.0044 17.3543 19.0294 17.2876 19.046C17.2209 19.0627 17.1543 19.0877 17.0876 19.096C17.0209 19.1044 16.9543 19.1044 16.8876 19.1044C16.8209 19.1044 16.7543 19.1044 16.6876 19.096C16.6209 19.0877 16.5543 19.0627 16.4876 19.046C16.4209 19.0294 16.3543 19.0044 16.2959 18.9794C16.2376 18.9544 16.1793 18.9127 16.1209 18.8794C16.0626 18.8377 16.0043 18.8044 15.9543 18.7544C15.9043 18.7127 15.8626 18.6544 15.8209 18.6044C15.7793 18.5544 15.7376 18.496 15.6959 18.4377C15.6626 18.3794 15.6376 18.321 15.6126 18.2544C15.5876 18.1877 15.5626 18.1294 15.5459 18.0627C15.5293 17.996 15.5209 17.9294 15.5126 17.8627C15.5126 17.796 15.5043 17.7377 15.5043 17.671C15.5209 17.3377 15.6459 17.0294 15.8709 16.7877C15.9043 16.7544 15.9376 16.721 15.9709 16.696C16.0626 16.6127 16.1626 16.546 16.2709 16.496C16.3126 16.4794 16.3543 16.4544 16.3959 16.4377C16.5459 16.3794 16.7126 16.346 16.8793 16.346C17.0459 16.346 17.2043 16.3877 17.3626 16.4377H17.3793Z" fill="#F3BB67"/>
</svg>
